<?xml version="1.0" standalone="yes"?>
<svg xmlns="http://www.w3.org/2000/svg" width="200" height="200">
<path style="fill:#ffffff; stroke:none;" d="M0 0L0 200L200 200L200 0L0 0z"/>
<path style="fill:#9b9b9b; stroke:none;" d="M28 38L29 39L28 38z"/>
<path style="fill:#4f4f4f; stroke:none;" d="M29 38L30 39L29 38z"/>
<path style="fill:#020202; stroke:none;" d="M30 38.5332C19.5683 41.0729 16.0236 56.3985 27.0154 60.9907C36.1564 64.8097 51.1727 62 61 62L139 62C148.188 62 167.141 65.5813 174.895 60.2577C185.542 52.9483 177.82 38.9852 167 38.0934C138.087 35.7101 108.02 38 79 38C63.7804 38 44.791 34.9321 30 38.5332z"/>
<path style="fill:#4f4f4f; stroke:none;" d="M170 38L171 39L170 38z"/>
<path style="fill:#9b9b9b; stroke:none;" d="M171 38L172 39L171 38z"/>
<path style="fill:#797979; stroke:none;" d="M26 39L27 40L26 39z"/>
<path style="fill:#4f4f4f; stroke:none;" d="M173 39L174 40L173 39z"/>
<path style="fill:#9b9b9b; stroke:none;" d="M24 40L25 41L24 40M175 40L176 41L175 40M23 41L24 42L23 41z"/>
<path style="fill:#797979; stroke:none;" d="M176 41L177 42L176 41z"/>
<path style="fill:#9b9b9b; stroke:none;" d="M22 42L23 43L22 42z"/>
<path style="fill:#797979; stroke:none;" d="M177 42L178 43L177 42z"/>
<path style="fill:#9b9b9b; stroke:none;" d="M178 43L179 44L178 43z"/>
<path style="fill:#4f4f4f; stroke:none;" d="M21 44L22 45L21 44M178 44L179 45L178 44z"/>
<path style="fill:#9b9b9b; stroke:none;" d="M179 45L180 46L179 45z"/>
<path style="fill:#797979; stroke:none;" d="M20 46L21 47L20 46z"/>
<path style="fill:#4f4f4f; stroke:none;" d="M179 46L180 47L179 46z"/>
<path style="fill:#9b9b9b; stroke:none;" d="M180 48L180 52L181 52L180 48z"/>
<path style="fill:#4f4f4f; stroke:none;" d="M20 53L21 54L20 53z"/>
<path style="fill:#797979; stroke:none;" d="M20 54L21 55L20 54z"/>
<path style="fill:#4f4f4f; stroke:none;" d="M179 54L180 55L179 54z"/>
<path style="fill:#9b9b9b; stroke:none;" d="M179 55L180 56L179 55z"/>
<path style="fill:#797979; stroke:none;" d="M21 56L22 57L21 56z"/>
<path style="fill:#4f4f4f; stroke:none;" d="M178 56L179 57L178 56z"/>
<path style="fill:#9b9b9b; stroke:none;" d="M177 58L178 59L177 58M23 59L24 60L23 59M176 59L177 60L176 59z"/>
<path style="fill:#4f4f4f; stroke:none;" d="M25 60L26 61L25 60z"/>
<path style="fill:#9b9b9b; stroke:none;" d="M175 60L176 61L175 60M26 61L27 62L26 61z"/>
<path style="fill:#4f4f4f; stroke:none;" d="M27 61L28 62L27 61z"/>
<path style="fill:#797979; stroke:none;" d="M173 61L174 62L173 61z"/>
<path style="fill:#9b9b9b; stroke:none;" d="M28 62L29 63L28 62z"/>
<path style="fill:#797979; stroke:none;" d="M29 62L30 63L29 62z"/>
<path style="fill:#4f4f4f; stroke:none;" d="M30 62L30 63L170 63C159.02 58.3926 139.944 62 128 62L30 62z"/>
<path style="fill:#797979; stroke:none;" d="M170 62L171 63L170 62z"/>
<path style="fill:#9b9b9b; stroke:none;" d="M171 62L172 63L171 62M30 87L30 88L170 88C159.02 83.3926 139.944 87 128 87L30 87z"/>
<path style="fill:#797979; stroke:none;" d="M27 88L28 89L27 88z"/>
<path style="fill:#4f4f4f; stroke:none;" d="M28 88L29 89L28 88z"/>
<path style="fill:#020202; stroke:none;" d="M29 88.5725C18.057 91.7177 17.3559 107.013 28.0008 111.106C37.365 114.707 52.0337 112 62 112L139 112C148.53 112 166.747 115.472 174.815 109.852C183.446 103.839 180.344 89.9952 169.999 88.2245C160.184 86.5445 148.955 88 139 88L76 88C61.776 88 42.6747 84.6422 29 88.5725z"/>
<path style="fill:#797979; stroke:none;" d="M172 88L173 89L172 88z"/>
<path style="fill:#9b9b9b; stroke:none;" d="M25 89L26 90L25 89z"/>
<path style="fill:#797979; stroke:none;" d="M174 89L175 90L174 89z"/>
<path style="fill:#4f4f4f; stroke:none;" d="M24 90L25 91L24 90M175 90L176 91L175 90M23 91L24 92L23 91M22 92L23 93L22 92M177 92L178 93L177 92z"/>
<path style="fill:#9b9b9b; stroke:none;" d="M21 93L22 94L21 93z"/>
<path style="fill:#797979; stroke:none;" d="M178 93L179 94L178 93z"/>
<path style="fill:#9b9b9b; stroke:none;" d="M20 95L21 96L20 95z"/>
<path style="fill:#797979; stroke:none;" d="M179 95L180 96L179 95z"/>
<path style="fill:#4f4f4f; stroke:none;" d="M20 96L21 97L20 96z"/>
<path style="fill:#9b9b9b; stroke:none;" d="M180 98L180 102L181 102L180 98z"/>
<path style="fill:#4f4f4f; stroke:none;" d="M20 103L21 104L20 103z"/>
<path style="fill:#9b9b9b; stroke:none;" d="M20 104L21 105L20 104z"/>
<path style="fill:#797979; stroke:none;" d="M179 104L180 105L179 104z"/>
<path style="fill:#9b9b9b; stroke:none;" d="M21 106L22 107L21 106z"/>
<path style="fill:#797979; stroke:none;" d="M178 106L179 107L178 106z"/>
<path style="fill:#4f4f4f; stroke:none;" d="M22 107L23 108L22 107M177 107L178 108L177 107M23 108L24 109L23 108M24 109L25 110L24 109M175 109L176 110L175 109z"/>
<path style="fill:#9b9b9b; stroke:none;" d="M25 110L26 111L25 110z"/>
<path style="fill:#797979; stroke:none;" d="M174 110L175 111L174 110z"/>
<path style="fill:#9b9b9b; stroke:none;" d="M27 111L28 112L27 111z"/>
<path style="fill:#4f4f4f; stroke:none;" d="M28 111L29 112L28 111z"/>
<path style="fill:#797979; stroke:none;" d="M172 111L173 112L172 111z"/>
<path style="fill:#9b9b9b; stroke:none;" d="M30 112L30 113L170 113C159.02 108.393 139.944 112 128 112L30 112M28 137L29 138L28 137z"/>
<path style="fill:#797979; stroke:none;" d="M29 137L30 138L29 137z"/>
<path style="fill:#4f4f4f; stroke:none;" d="M30 137L30 138L170 138C159.02 133.393 139.944 137 128 137L30 137z"/>
<path style="fill:#797979; stroke:none;" d="M170 137L171 138L170 137z"/>
<path style="fill:#9b9b9b; stroke:none;" d="M171 137L172 138L171 137M26 138L27 139L26 138z"/>
<path style="fill:#020202; stroke:none;" d="M27.0154 138.858C16.6676 143.181 19.2271 158.115 29.0008 161.196C39.222 164.418 53.3325 162 64 162L138 162C148.031 162 166.44 165.513 174.895 159.297C182.522 153.69 181.01 140.062 170.999 138.228C160.331 136.274 147.845 138 137 138L69 138C57.2 138 37.9284 134.299 27.0154 138.858z"/>
<path style="fill:#9b9b9b; stroke:none;" d="M173 138L174 139L173 138z"/>
<path style="fill:#4f4f4f; stroke:none;" d="M25 139L26 140L25 139z"/>
<path style="fill:#9b9b9b; stroke:none;" d="M175 139L176 140L175 139M23 140L24 141L23 140M176 140L177 141L176 140M177 141L178 142L177 141z"/>
<path style="fill:#797979; stroke:none;" d="M21 143L22 144L21 143z"/>
<path style="fill:#4f4f4f; stroke:none;" d="M178 143L179 144L178 143z"/>
<path style="fill:#9b9b9b; stroke:none;" d="M179 144L180 145L179 144z"/>
<path style="fill:#797979; stroke:none;" d="M20 145L21 146L20 145z"/>
<path style="fill:#4f4f4f; stroke:none;" d="M179 145L180 146L179 145M20 146L21 147L20 146z"/>
<path style="fill:#9b9b9b; stroke:none;" d="M180 148L180 152L181 152L180 148z"/>
<path style="fill:#4f4f4f; stroke:none;" d="M20 152L21 153L20 152z"/>
<path style="fill:#797979; stroke:none;" d="M20 153L21 154L20 153z"/>
<path style="fill:#4f4f4f; stroke:none;" d="M179 153L180 154L179 153z"/>
<path style="fill:#9b9b9b; stroke:none;" d="M179 154L180 155L179 154z"/>
<path style="fill:#4f4f4f; stroke:none;" d="M21 155L22 156L21 155M178 155L179 156L178 155z"/>
<path style="fill:#9b9b9b; stroke:none;" d="M178 156L179 157L178 156M22 157L23 158L22 157z"/>
<path style="fill:#797979; stroke:none;" d="M177 157L178 158L177 157z"/>
<path style="fill:#9b9b9b; stroke:none;" d="M23 158L24 159L23 158z"/>
<path style="fill:#797979; stroke:none;" d="M176 158L177 159L176 158z"/>
<path style="fill:#9b9b9b; stroke:none;" d="M24 159L25 160L24 159M175 159L176 160L175 159z"/>
<path style="fill:#797979; stroke:none;" d="M26 160L27 161L26 160z"/>
<path style="fill:#4f4f4f; stroke:none;" d="M173 160L174 161L173 160z"/>
<path style="fill:#9b9b9b; stroke:none;" d="M28 161L29 162L28 161z"/>
<path style="fill:#4f4f4f; stroke:none;" d="M29 161L30 162L29 161M170 161L171 162L170 161z"/>
<path style="fill:#9b9b9b; stroke:none;" d="M171 161L172 162L171 161z"/>
</svg>
